<svg xmlns="http://www.w3.org/2000/svg" width="1200" height="310.326" viewBox="0 0 1200 310.326">
  <g id="GNB" transform="translate(60 -1669.674)">
    <g id="그룹_31" data-name="그룹 31">
      <g id="그룹_28" data-name="그룹 28">
        <g id="bg">
          <g id="그룹_29" data-name="그룹 29">
            <path id="패스_27" data-name="패스 27" d="M680.428,36.186c-21.277,0-34.682-.834-56.171-12.172C592.223,7.113,568.085,0,540,0s-52.223,7.113-84.257,24.014c-21.49,11.338-34.894,12.172-56.171,12.172H0v154.14H1080V36.186Z" transform="translate(0 1729.674)" fill="#8fa9d3"/>
          </g>
          <path id="패스_28" data-name="패스 28" d="M680.428,36.186c-21.277,0-34.682-.834-56.171-12.172C592.223,7.113,568.085,0,540,0s-52.223,7.113-84.257,24.014c-21.49,11.338-34.894,12.172-56.171,12.172H0v154.14H1080V36.186Z" transform="translate(0 1729.674)" fill="#0086fe"/>
        </g>
      </g>
    </g>
    <g id="그룹_30" data-name="그룹 30">
      <g id="BTN_List" transform="translate(0 -0.326)">
        <circle id="타원_1" data-name="타원 1" cx="70" cy="70" r="70" transform="translate(470 1750)" fill="#fff"/>
        <g id="그룹_3" data-name="그룹 3" transform="translate(-394 -469)">
          <g id="그룹_2" data-name="그룹 2" transform="translate(415 808)">
            <path id="패스_29" data-name="패스 29" d="M5.1,10.211A5.105,5.105,0,1,0,0,5.106a5.1,5.1,0,0,0,5.1,5.1m12.286-5.1a3.4,3.4,0,0,1,3.4-3.4H72.6a3.4,3.4,0,1,1,0,6.807H20.8a3.4,3.4,0,0,1-3.4-3.4m3.4,17.017a3.4,3.4,0,1,0,0,6.807H72.6a3.4,3.4,0,1,0,0-6.807Zm0,20.42a3.4,3.4,0,1,0,0,6.807H72.6a3.4,3.4,0,1,0,0-6.807ZM10.21,25.526a5.1,5.1,0,1,1-5.1-5.1,5.106,5.106,0,0,1,5.1,5.1M5.1,51.052a5.105,5.105,0,1,0-5.1-5.1,5.1,5.1,0,0,0,5.1,5.1" transform="translate(481 1455)" fill="#0086fe" fill-rule="evenodd"/>
          </g>
          <rect id="사각형_9" data-name="사각형 9" width="80" height="80" transform="translate(894 2249)" fill="none"/>
        </g>
      </g>
    </g>
  </g>
</svg>
