<svg xmlns="http://www.w3.org/2000/svg" xmlns:xlink="http://www.w3.org/1999/xlink" width="1140" height="210" viewBox="0 0 1140 210">
  <defs>
    <filter id="header_bg" x="0" y="0" width="1140" height="210" filterUnits="userSpaceOnUse">
      <feOffset dy="3" input="SourceAlpha"/>
      <feGaussianBlur stdDeviation="10" result="blur"/>
      <feFlood flood-color="#8c8fb9" flood-opacity="0.302"/>
      <feComposite operator="in" in2="blur"/>
      <feComposite in="SourceGraphic"/>
    </filter>
    <linearGradient id="linear-gradient" x1="0.026" y1="0.5" x2="0.962" y2="0.5" gradientUnits="objectBoundingBox">
      <stop offset="0" stop-color="#472682"/>
      <stop offset="1" stop-color="#32a5ff"/>
    </linearGradient>
  </defs>
  <g id="그룹_85" data-name="그룹 85" transform="translate(6545 575)">
    <g id="header" transform="translate(-6515 -548)">
      <g transform="matrix(1, 0, 0, 1, -30, -27)" filter="url(#header_bg)">
        <rect id="header_bg-2" data-name="header bg" width="1080" height="150" transform="translate(30 27)" fill="#fff"/>
      </g>
      <g id="title" transform="translate(-7.5 -4.035)">
        <path id="SICEM_2023" data-name="SICEM 2023" d="M208.176,47.006H241.1V45.368H208.176Zm77.252,0H318.35V45.368H285.428Zm-77.252-3.085H241.1V42.279H208.176Zm77.252,0H318.35V42.279H285.428Zm-61.583-4.729H208.176v1.64H241.1v-1.64Zm77.252,0H285.427v1.64H318.35v-1.64ZM161.924,47.006h2.021V30.793l-2.021-3.7Zm21.332-16.43v16.43h2.02V26.876Zm-25.374,16.43h2.02V23.34l-2.02-3.7ZM187.3,23.068V47.006h2.021V19.368ZM153.841,47.006h2.02V15.914l-2.02-3.726Zm37.5-31.337V47.006h2.02V11.942Zm-178.513,0a4.122,4.122,0,0,0,.954,2.843A3.977,3.977,0,0,0,16.9,19.586h3.4a14.631,14.631,0,0,1,7.592,1.9,12.228,12.228,0,0,1,4.786,4.965A14.758,14.758,0,0,1,34.243,33.3a13.014,13.014,0,0,1-4.167,9.685,14.141,14.141,0,0,1-5.109,2.951,21.108,21.108,0,0,1-6.947,1.074A30.182,30.182,0,0,1,8.8,45.633a19.915,19.915,0,0,1-7.171-3.877L0,42.926a21.91,21.91,0,0,0,7.873,4.447A31.6,31.6,0,0,0,18.02,48.965a24.5,24.5,0,0,0,6.414-.8,17.369,17.369,0,0,0,5.108-2.231,15.549,15.549,0,0,0,3.677-3.387,13.91,13.91,0,0,0,2.288-4.3,15.971,15.971,0,0,0,.757-4.951,17.29,17.29,0,0,0-1.039-6.025,15.11,15.11,0,0,0-3-4.978,13.669,13.669,0,0,0-5.01-3.414,17.844,17.844,0,0,0-6.835-1.251H16.9a2.131,2.131,0,0,1-1.657-.517,2.126,2.126,0,0,1-.449-1.442,1.617,1.617,0,0,1,.828-1.442,6.85,6.85,0,0,1,3.243-.517q4.939,0,6.9.871l1.629-1.2q-2.864-1.632-8.533-1.632-6.035,0-6.036,3.917m66.508-2.911a13.229,13.229,0,0,0-4.2,2.721,12.789,12.789,0,0,0-2.808,4.066,12.262,12.262,0,0,0,0,9.875,12.789,12.789,0,0,0,2.808,4.066A13.458,13.458,0,0,0,90.6,35.717a12.891,12.891,0,0,0,4.66-4.053l-1.629-1.143a10.906,10.906,0,0,1-3.943,3.455,11.118,11.118,0,0,1-5.262,1.279A10.878,10.878,0,0,1,76.57,32.1a10.217,10.217,0,0,1-3.256-7.617,10.22,10.22,0,0,1,3.256-7.617,10.881,10.881,0,0,1,7.859-3.156,11.224,11.224,0,0,1,5.262,1.265,10.8,10.8,0,0,1,3.943,3.441l1.657-1.061a12.92,12.92,0,0,0-4.66-4.094,13.455,13.455,0,0,0-11.3-.5m139.032,3.158v.364h1.742v-.364c0-3,1.734-4.944,4.418-4.944,2.526,0,4.158,1.906,4.158,4.856,0,8.956-12.635,17.463-20.234,21.687h3.231c8.808-5.365,18.743-13.4,18.743-21.687,0-3.946-2.316-6.5-5.9-6.5-3.684,0-6.16,2.645-6.16,6.583m39.068,15.823V17.273c0-3.758,2.342-6.283,5.829-6.283s5.828,2.518,5.828,6.264V31.72c0,3.758-2.343,6.283-5.828,6.283s-5.829-2.517-5.829-6.263M255.7,17.254v14.49c.009,4.724,3.051,7.9,7.569,7.9s7.56-3.174,7.569-7.9V17.254c0-4.739-3.044-7.922-7.569-7.922s-7.569,3.183-7.569,7.922m39.922-1.339v.364h1.742v-.364c0-3,1.734-4.944,4.418-4.944,2.525,0,4.158,1.906,4.158,4.856,0,8.956-12.635,17.463-20.235,21.687h3.233c8.807-5.365,18.742-13.4,18.742-21.687,0-3.946-2.315-6.5-5.9-6.5-3.684,0-6.161,2.645-6.161,6.583m38.036-1.362v.364h1.741v-.364a3.634,3.634,0,0,1,3.813-3.609,3.519,3.519,0,0,1,3.561,3.786c0,2.662-2.293,4.187-6.292,4.187H336.1v1.547h.376c4.766,0,7.8-2.035,8.019-5.337l.013-.373v-.387H344.5A5.11,5.11,0,0,0,339.207,9.3a5.231,5.231,0,0,0-5.554,5.249M11.241,10.01A7.1,7.1,0,0,0,8.7,15.669a7.915,7.915,0,0,0,2.049,5.658Q12.8,23.5,16.9,23.5h3.171q4.884,0,7.509,2.775A9.808,9.808,0,0,1,30.2,33.3a8.952,8.952,0,0,1-3.13,7.046q-3.131,2.749-9.052,2.747a27.012,27.012,0,0,1-7.508-1.006,16.646,16.646,0,0,1-5.8-2.829L3.144,40.478a18.2,18.2,0,0,0,6.483,3.373,28.463,28.463,0,0,0,8.393,1.2q6.737,0,10.47-3.333A10.8,10.8,0,0,0,32.222,33.3a11.678,11.678,0,0,0-3.214-8.379q-3.215-3.371-8.912-3.372H16.9q-3.285,0-4.73-1.606a6.133,6.133,0,0,1-1.445-4.27,5.263,5.263,0,0,1,1.951-4.258q1.951-1.617,6.189-1.618,6.567,0,10.076,2.34l1.6-1.2a14.486,14.486,0,0,0-5.053-2.3,26.126,26.126,0,0,0-6.623-.8q-5.082,0-7.621,2.176m64.571.055a16.768,16.768,0,0,0-6.259,6.066,16.3,16.3,0,0,0,0,16.7A16.762,16.762,0,0,0,75.812,38.9a17.743,17.743,0,0,0,16.714.272,16.843,16.843,0,0,0,6.105-5.332l-1.656-1.115a14.985,14.985,0,0,1-5.389,4.706A15.622,15.622,0,0,1,76.823,37.2a14.9,14.9,0,0,1-5.516-5.346,14.369,14.369,0,0,1,0-14.744,14.918,14.918,0,0,1,5.516-5.346,15.647,15.647,0,0,1,14.75-.245,14.992,14.992,0,0,1,5.375,4.665l1.684-1.061a16.857,16.857,0,0,0-6.105-5.332,17.737,17.737,0,0,0-16.714.272M215,15.916v.364h1.74v-.364c0-4.879,3.056-8.03,7.787-8.03,4.572,0,7.527,3.118,7.527,7.942,0,6.58-6.037,13.967-17.944,21.687h2.924c11.275-7.888,16.761-15.082,16.761-21.687,0-5.822-3.638-9.585-9.267-9.585-5.7,0-9.527,3.888-9.527,9.673m39.067,15.8V17.254c0-5.692,3.611-9.369,9.2-9.369s9.195,3.677,9.195,9.369V31.72c0,5.692-3.609,9.37-9.195,9.37s-9.2-3.678-9.2-9.37m-1.74-14.465v14.49c.009,6.57,4.405,10.986,10.938,10.986S274.19,38.314,274.2,31.745V17.254c0-6.585-4.4-11.011-10.938-11.011s-10.938,4.426-10.938,11.011m39.925-1.339v.364h1.74v-.364c0-4.879,3.055-8.03,7.787-8.03,4.572,0,7.527,3.118,7.527,7.942,0,6.58-6.038,13.967-17.945,21.687h2.924c11.275-7.888,16.761-15.082,16.761-21.687,0-5.822-3.638-9.585-9.267-9.585-5.7,0-9.527,3.888-9.527,9.673m38.033-1.362v.364h1.741v-.364c0-3.881,3.02-6.7,7.182-6.7a6.613,6.613,0,0,1,6.928,6.9c0,4.268-3.7,6.921-9.659,6.921H336.1v1.546h.376c7.032,0,11.4-3.244,11.4-8.467,0-5.026-3.565-8.538-8.67-8.538-5.087,0-8.923,3.584-8.923,8.337M8.392,7.249a10.8,10.8,0,0,0-3.732,8.42A11.579,11.579,0,0,0,7.9,24.088q3.242,3.333,9,3.332h3.059q3.284,0,4.744,1.619A6.119,6.119,0,0,1,26.159,33.3a5.26,5.26,0,0,1-1.951,4.257q-1.951,1.62-6.189,1.619-6.6,0-10.1-2.339l-1.6,1.2a14.418,14.418,0,0,0,5.066,2.3,26.22,26.22,0,0,0,6.638.8q5.08,0,7.621-2.176a7.1,7.1,0,0,0,2.54-5.658,7.946,7.946,0,0,0-2.049-5.631q-2.049-2.2-6.146-2.2H16.9q-4.942,0-7.579-2.762A9.76,9.76,0,0,1,6.68,15.669,8.951,8.951,0,0,1,9.81,8.623q3.129-2.747,9.052-2.748a26.864,26.864,0,0,1,7.493,1.007,16.662,16.662,0,0,1,5.782,2.829L33.71,8.487A18.245,18.245,0,0,0,27.24,5.114a28.354,28.354,0,0,0-8.378-1.2q-6.738,0-10.47,3.331m65.4-.57a20.822,20.822,0,0,0-7.732,7.493,19.627,19.627,0,0,0-2.849,10.31,19.618,19.618,0,0,0,2.849,10.31,20.815,20.815,0,0,0,7.732,7.495,21.878,21.878,0,0,0,20.616.354,20.9,20.9,0,0,0,7.536-6.543l-1.628-1.17a19.356,19.356,0,0,1-15.886,8.161,19.791,19.791,0,0,1-13.6-5.427,18.575,18.575,0,0,1-4.085-5.943,18.032,18.032,0,0,1,0-14.472A18.579,18.579,0,0,1,70.83,11.3,19.767,19.767,0,0,1,93.481,8.066a18.9,18.9,0,0,1,6.834,5.943L102,12.949a21.014,21.014,0,0,0-7.55-6.6,21.86,21.86,0,0,0-20.658.327m137.84,9.237v.364h1.74v-.364c0-6.755,4.379-11.119,11.156-11.119,6.619,0,10.9,4.329,10.9,11.031,0,6.663-5.423,14.051-16.118,21.687h2.6c10.128-7.5,15.262-14.889,15.262-21.687,0-7.7-4.961-12.671-12.636-12.671-7.834,0-12.9,5.009-12.9,12.759M250.7,31.72V17.254c0-7.569,4.931-12.457,12.564-12.457s12.564,4.888,12.564,12.457V31.72c0,7.568-4.931,12.457-12.564,12.457S250.7,39.288,250.7,31.72m-1.743-14.465v14.49c.012,8.548,5.628,14.073,14.307,14.073s14.295-5.525,14.306-14.073V17.254c0-8.433-5.75-14.1-14.306-14.1s-14.307,5.665-14.307,14.1m39.926-1.339v.364h1.74v-.364C290.622,9.16,295,4.8,301.778,4.8c6.619,0,10.9,4.329,10.9,11.031,0,6.663-5.422,14.051-16.118,21.687h2.6c10.128-7.5,15.262-14.889,15.262-21.687,0-7.7-4.961-12.671-12.635-12.671-7.835,0-12.9,5.009-12.9,12.759m38.033-1.362v.364h1.741v-.364c0-5.668,4.436-9.783,10.551-9.783,6.064,0,10.3,4.106,10.3,9.986a8.306,8.306,0,0,1-2.5,6.249c-2.279,2.226-5.919,3.4-10.526,3.4H336.1v1.546h.376c9.11,0,14.769-4.29,14.769-11.2,0-6.844-4.951-11.625-12.038-11.625-7.006,0-12.291,4.912-12.291,11.424M40.727,47.006h2.021V1.959H40.727Zm4.042,0H46.79V1.959H44.768Zm4.042,0h2.021V1.959H48.81Zm4.042,0h2.021V1.959H52.852Zm56.332,0h2.021V1.959h-2.021Zm4.042,0h2.02V1.959h-2.02Zm4.041,0h2.021V1.959h-2.021ZM121.31,1.959V47.006h23.521V45.048h-21.5V43.089h21.5V41.13h-21.5V39.172h21.5V37.214h-21.5V29.379h11.031V27.42H123.331V25.462h11.031V23.5H123.331V21.545h11.031V19.586H123.331V11.752h21.5V9.793h-21.5V7.834h21.5V5.875h-21.5V3.918h21.5V1.959Zm28.489,0V47.006h2.02V5.685L167.9,35.255h2.274l-18.1-33.3Zm4.575,0,18.076,33.3h2.3l-18.076-33.3Zm31.577,0L174.275,23.313l1.179,2.067,12.8-23.421Zm4.6,0L176.632,27.611l1.151,2.04L192.827,1.959Zm4.547,0L178.176,33.187,161.223,1.959H158.95L177,35.255h2.3l16.083-29.57V47.006h2.02V1.959Zm13.162,13.957v.364H210v-.364c0-8.657,5.7-14.249,14.522-14.249,8.666,0,14.265,5.558,14.265,14.161,0,9.073-8.1,16.852-14.946,21.687l2.666,0c9.16-6.765,14-14.337,14-21.685,0-9.6-6.272-15.8-15.981-15.8-9.88,0-16.263,6.238-16.263,15.892m39.068,15.8V17.254c0-9.47,6.254-15.587,15.933-15.587S279.2,7.785,279.2,17.254V31.72c0,9.47-6.254,15.587-15.933,15.587s-15.933-6.118-15.933-15.587m-1.743-14.465V31.739c.012,10.451,6.95,17.2,17.676,17.2s17.664-6.753,17.674-17.2V17.251C280.938,6.785,274,.023,263.264.023s-17.676,6.764-17.676,17.231m39.926-1.339v.364h1.741v-.364c0-8.657,5.7-14.249,14.523-14.249,8.666,0,14.264,5.558,14.264,14.161,0,9.073-8.1,16.852-14.946,21.687l2.665,0c9.16-6.765,14-14.337,14-21.685,0-9.6-6.272-15.8-15.981-15.8-9.881,0-16.264,6.238-16.264,15.892M18.862,0a24.5,24.5,0,0,0-6.415.8A17.36,17.36,0,0,0,7.34,3.033,15.534,15.534,0,0,0,3.663,6.42a13.883,13.883,0,0,0-2.287,4.3,15.952,15.952,0,0,0-.758,4.951,17.107,17.107,0,0,0,1.067,6.093,14.915,14.915,0,0,0,3.073,4.978,13.725,13.725,0,0,0,5.136,3.372,19.082,19.082,0,0,0,7,1.225h3.031a2.19,2.19,0,0,1,1.7.53A2.1,2.1,0,0,1,22.09,33.3a1.616,1.616,0,0,1-.828,1.442,6.838,6.838,0,0,1-3.241.517q-4.969,0-6.933-.87l-1.628,1.2q2.863,1.632,8.561,1.632,6.034,0,6.034-3.918a4.14,4.14,0,0,0-.954-2.829,3.955,3.955,0,0,0-3.115-1.088H16.9a15.5,15.5,0,0,1-7.775-1.863,12.006,12.006,0,0,1-4.883-4.937,14.734,14.734,0,0,1-1.6-6.909A13.014,13.014,0,0,1,6.806,5.984a14.138,14.138,0,0,1,5.109-2.951,21.122,21.122,0,0,1,6.948-1.074,30.073,30.073,0,0,1,9.206,1.373,19.943,19.943,0,0,1,7.157,3.877l1.628-1.17a21.943,21.943,0,0,0-7.859-4.447A31.479,31.479,0,0,0,18.862,0ZM84.429,0a25.291,25.291,0,0,0-9.811,1.945,25.531,25.531,0,0,0-8.055,5.223,24.62,24.62,0,0,0-5.388,7.807,23.521,23.521,0,0,0,0,19.015A24.611,24.611,0,0,0,66.563,41.8a25.5,25.5,0,0,0,8.055,5.223,25.652,25.652,0,0,0,30.664-8.691l-1.628-1.2a23.516,23.516,0,0,1-19.226,9.874,23.927,23.927,0,0,1-16.448-6.583,22.546,22.546,0,0,1-4.955-7.2,21.721,21.721,0,0,1,0-17.491,22.546,22.546,0,0,1,4.955-7.2A23.888,23.888,0,0,1,95.361,4.6a22.855,22.855,0,0,1,8.265,7.182l1.684-1.061A24.975,24.975,0,0,0,96.33,2.883,25.258,25.258,0,0,0,84.429,0ZM339.207,0c-8.928,0-15.66,6.256-15.66,14.554v.355l1.742.04v-.372c0-7.362,5.983-12.914,13.918-12.914,8.046,0,13.665,5.393,13.665,13.115,0,7.665-6.283,12.429-16.4,12.429H336.1v1.546h.607c3.4,0,7.446.854,7.446,4.923,0,2.545-2.136,4.322-5.2,4.322-3.141,0-5.335-2.307-5.335-5.613v-.364H331.88v.364a6.933,6.933,0,0,0,7.078,7.254c4.02,0,6.937-2.508,6.937-5.963a5.625,5.625,0,0,0-3.675-5.467c.642-.13,1.265-.282,1.862-.458a6.486,6.486,0,0,1,3.44,5.924c0,4.363-3.521,7.41-8.564,7.41a8.326,8.326,0,0,1-8.7-8.7v-.364h-1.74v.364a10.053,10.053,0,0,0,10.445,10.341c6.068,0,10.3-3.721,10.3-9.05A7.872,7.872,0,0,0,346,27.086c.48-.2.943-.411,1.389-.637a8.435,8.435,0,0,1,3.5,7.227c0,6.181-4.908,10.5-11.933,10.5-7.107,0-12.071-4.847-12.071-11.788v-.364h-1.742v.364c0,7.781,5.81,13.428,13.813,13.428,8.051,0,13.672-4.993,13.672-12.137a10.086,10.086,0,0,0-3.709-8.13q.569-.381,1.083-.8a10.829,10.829,0,0,1,4.253,8.929c0,8.024-6.29,13.627-15.3,13.627-9.091,0-15.44-6.134-15.44-14.918v-.364h-1.742v.364c0,9.748,7.065,16.558,17.182,16.558,10.033,0,17.042-6.288,17.042-15.291a12.253,12.253,0,0,0-4.785-10.05,12.546,12.546,0,0,0,3.4-8.848C354.614,6.068,348.279,0,339.207,0Z" transform="translate(40 54.035)" fill="url(#linear-gradient)"/>
        <text id="The_11th_Seoul_International_Congress_of_Endocrinology_and_Metabolism_in_conjunction_with_the_42nd_Annual_Scientific_Meeting_of_Korean_Endocrine_Society" data-name="The 11th Seoul International Congress of Endocrinology and Metabolism
in conjunction with the 42nd Annual Scientific Meeting of Korean Endocrine Society" transform="translate(416 77)" fill="#414042" font-size="18" font-family="RobotoCondensed-Regular, Roboto" letter-spacing="-0.01em"><tspan x="0" y="0">The 11</tspan><tspan y="0" font-size="10.499" baseline-shift="5.999400079342301">th</tspan><tspan y="0"> </tspan><tspan y="0" font-family="RobotoCondensed-Bold, Roboto" font-weight="700">S</tspan><tspan y="0">eoul </tspan><tspan y="0" font-family="RobotoCondensed-Bold, Roboto" font-weight="700">I</tspan><tspan y="0">nternational </tspan><tspan y="0" font-family="RobotoCondensed-Bold, Roboto" font-weight="700">C</tspan><tspan y="0">ongress of </tspan><tspan y="0" font-family="RobotoCondensed-Bold, Roboto" font-weight="700">E</tspan><tspan y="0">ndocrinology and </tspan><tspan y="0" font-family="RobotoCondensed-Bold, Roboto" font-weight="700">M</tspan><tspan y="0">etabolism</tspan><tspan x="0" y="22">in conjunction with the 42</tspan><tspan y="22" font-size="10.499" baseline-shift="5.999400079342301">nd</tspan><tspan y="22" xml:space="preserve"> Annual Scientific Meeting of Korean Endocrine Society</tspan></text>
      </g>
    </g>
  </g>
</svg>
