<svg xmlns="http://www.w3.org/2000/svg" xmlns:xlink="http://www.w3.org/1999/xlink" width="1140" height="210" viewBox="0 0 1140 210">
  <defs>
    <filter id="header_bg" x="0" y="0" width="1140" height="210" filterUnits="userSpaceOnUse">
      <feOffset dy="3" input="SourceAlpha"/>
      <feGaussianBlur stdDeviation="10" result="blur"/>
      <feFlood flood-color="#8c8fb9" flood-opacity="0.302"/>
      <feComposite operator="in" in2="blur"/>
      <feComposite in="SourceGraphic"/>
    </filter>
    <linearGradient id="linear-gradient" x1="0.026" y1="0.5" x2="0.962" y2="0.5" gradientUnits="objectBoundingBox">
      <stop offset="0" stop-color="#472682"/>
      <stop offset="1" stop-color="#32a5ff"/>
    </linearGradient>
  </defs>
  <g id="header" transform="translate(30 27)">
    <g transform="matrix(1, 0, 0, 1, -30, -27)" filter="url(#header_bg)">
      <rect id="header_bg-2" data-name="header bg" width="1080" height="150" transform="translate(30 27)" fill="#fff"/>
    </g>
    <g id="title" transform="translate(29 -4.035)">
      <path id="SICEM_2023" data-name="SICEM 2023" d="M208.176,47.966H241.1V46.294H208.176Zm77.252,0H318.35V46.294H285.428Zm-77.252-3.148H241.1V43.143H208.176Zm77.252,0H318.35V43.143H285.428Zm-61.583-4.826H208.176v1.673H241.1V39.992Zm77.252,0H285.427v1.673H318.35V39.992ZM161.924,47.966h2.021V31.422l-2.021-3.775ZM183.257,31.2V47.966h2.02V27.425ZM157.883,47.966h2.02V23.817l-2.02-3.776ZM187.3,23.539V47.966h2.021v-28.2ZM153.841,47.966h2.02V16.239l-2.02-3.8Zm37.5-31.977V47.966h2.02V12.186Zm-178.513,0a4.261,4.261,0,0,0,.954,2.9,3.931,3.931,0,0,0,3.116,1.1h3.4a14.4,14.4,0,0,1,7.592,1.943A12.371,12.371,0,0,1,32.672,27a15.313,15.313,0,0,1,1.571,6.981,13.694,13.694,0,0,1-1.08,5.441,13.357,13.357,0,0,1-3.087,4.442,14.078,14.078,0,0,1-5.109,3.011,20.722,20.722,0,0,1-6.947,1.1,29.626,29.626,0,0,1-9.221-1.4,19.8,19.8,0,0,1-7.171-3.956L0,43.8a21.8,21.8,0,0,0,7.873,4.538A31.027,31.027,0,0,0,18.02,49.965a24.04,24.04,0,0,0,6.414-.819,17.2,17.2,0,0,0,5.108-2.276,15.674,15.674,0,0,0,3.677-3.456,14.292,14.292,0,0,0,2.288-4.386,16.6,16.6,0,0,0,.757-5.052,17.967,17.967,0,0,0-1.039-6.148,15.482,15.482,0,0,0-3-5.08,13.663,13.663,0,0,0-5.01-3.484,17.53,17.53,0,0,0-6.835-1.276H16.9a2.1,2.1,0,0,1-1.657-.528,2.2,2.2,0,0,1-.449-1.471,1.657,1.657,0,0,1,.828-1.472,6.73,6.73,0,0,1,3.243-.527q4.939,0,6.9.889L27.4,13.657q-2.864-1.665-8.533-1.665-6.035,0-6.036,4m66.508-2.971a13.206,13.206,0,0,0-4.2,2.777,13.059,13.059,0,0,0-2.808,4.149,12.747,12.747,0,0,0,0,10.076,12.9,12.9,0,0,0,7,6.925,13.166,13.166,0,0,0,15.929-4.635l-1.629-1.166a11.118,11.118,0,0,1-9.206,4.83,10.764,10.764,0,0,1-7.859-3.22,10.529,10.529,0,0,1-3.256-7.772A10.531,10.531,0,0,1,76.57,17.21a10.768,10.768,0,0,1,7.859-3.22,11.043,11.043,0,0,1,5.262,1.291,10.87,10.87,0,0,1,3.943,3.512l1.657-1.083a13.171,13.171,0,0,0-15.957-4.691m139.032,3.223v.371h1.742v-.371c0-3.066,1.734-5.045,4.418-5.045,2.526,0,4.158,1.945,4.158,4.956,0,9.139-12.635,17.82-20.234,22.129h3.231c8.808-5.475,18.743-13.669,18.743-22.129,0-4.026-2.316-6.628-5.9-6.628-3.684,0-6.16,2.7-6.16,6.718m39.068,16.147V17.626c0-3.835,2.342-6.411,5.829-6.411s5.828,2.569,5.828,6.392V32.367c0,3.835-2.343,6.411-5.828,6.411s-5.829-2.569-5.829-6.391M255.7,17.607V32.393c.009,4.82,3.051,8.059,7.569,8.059s7.56-3.239,7.569-8.059V17.607c0-4.836-3.044-8.084-7.569-8.084s-7.569,3.248-7.569,8.084m39.922-1.366v.371h1.742v-.371c0-3.066,1.734-5.045,4.418-5.045,2.525,0,4.158,1.945,4.158,4.956,0,9.139-12.635,17.82-20.235,22.129h3.233c8.807-5.475,18.742-13.669,18.742-22.129,0-4.026-2.315-6.628-5.9-6.628-3.684,0-6.161,2.7-6.161,6.718m38.036-1.39v.372h1.741v-.372a3.668,3.668,0,0,1,3.813-3.682,3.559,3.559,0,0,1,3.561,3.863c0,2.716-2.293,4.272-6.292,4.272H336.1v1.578h.376c4.766,0,7.8-2.077,8.019-5.446l.013-.38v-.395H344.5a5.157,5.157,0,0,0-5.291-5.167,5.279,5.279,0,0,0-5.554,5.357M11.241,10.215A7.308,7.308,0,0,0,8.7,15.989a8.174,8.174,0,0,0,2.049,5.773Q12.8,23.984,16.9,23.983h3.171q4.884,0,7.509,2.831A10.126,10.126,0,0,1,30.2,33.976a9.218,9.218,0,0,1-3.13,7.189q-3.131,2.8-9.052,2.8a26.506,26.506,0,0,1-7.508-1.027,16.515,16.515,0,0,1-5.8-2.887L3.144,41.3a18.075,18.075,0,0,0,6.483,3.442,27.935,27.935,0,0,0,8.393,1.221q6.737,0,10.47-3.4a11.119,11.119,0,0,0,3.733-8.591,12.052,12.052,0,0,0-3.214-8.55q-3.215-3.44-8.912-3.441H16.9q-3.285,0-4.73-1.639a6.338,6.338,0,0,1-1.445-4.357,5.415,5.415,0,0,1,1.951-4.345q1.951-1.65,6.189-1.651,6.567,0,10.076,2.388l1.6-1.222a14.353,14.353,0,0,0-5.053-2.346,25.63,25.63,0,0,0-6.623-.819q-5.082,0-7.621,2.221m64.571.056a16.928,16.928,0,0,0-6.259,6.19,16.926,16.926,0,0,0,0,17.044,17.263,17.263,0,0,0,29.079,1.027l-1.656-1.138a15.081,15.081,0,0,1-5.389,4.8,15.225,15.225,0,0,1-20.279-5.691,14.92,14.92,0,0,1,0-15.045,15.253,15.253,0,0,1,25.64-.944l1.684-1.082a17.334,17.334,0,0,0-22.82-5.163M215,16.241v.371h1.74v-.371c0-4.979,3.056-8.194,7.787-8.194,4.572,0,7.527,3.182,7.527,8.1,0,6.714-6.037,14.252-17.944,22.129h2.924c11.275-8.049,16.761-15.39,16.761-22.129,0-5.941-3.638-9.78-9.267-9.78-5.7,0-9.527,3.968-9.527,9.87m39.067,16.127V17.607c0-5.808,3.611-9.56,9.2-9.56s9.195,3.752,9.195,9.56V32.367c0,5.808-3.609,9.561-9.195,9.561s-9.2-3.753-9.2-9.561m-1.74-14.761V32.393c.009,6.7,4.405,11.21,10.938,11.21S274.19,39.1,274.2,32.393V17.607c0-6.719-4.4-11.236-10.938-11.236s-10.938,4.516-10.938,11.236m39.925-1.366v.371h1.74v-.371c0-4.979,3.055-8.194,7.787-8.194,4.572,0,7.527,3.182,7.527,8.1,0,6.714-6.038,14.252-17.945,22.129h2.924c11.275-8.049,16.761-15.39,16.761-22.129,0-5.941-3.638-9.78-9.267-9.78-5.7,0-9.527,3.968-9.527,9.87m38.033-1.39v.372h1.741v-.372c0-3.96,3.02-6.833,7.182-6.833a6.681,6.681,0,0,1,6.928,7.038c0,4.355-3.7,7.062-9.659,7.062H336.1V23.7h.376c7.032,0,11.4-3.31,11.4-8.64a8.316,8.316,0,0,0-8.67-8.712c-5.087,0-8.923,3.658-8.923,8.507M8.392,7.4A11.121,11.121,0,0,0,4.66,15.989,11.949,11.949,0,0,0,7.9,24.58q3.242,3.4,9,3.4h3.059q3.284,0,4.744,1.652a6.323,6.323,0,0,1,1.459,4.344,5.413,5.413,0,0,1-1.951,4.344q-1.951,1.653-6.189,1.652-6.6,0-10.1-2.387l-1.6,1.221a14.285,14.285,0,0,0,5.066,2.345,25.722,25.722,0,0,0,6.638.819q5.08,0,7.621-2.221a7.306,7.306,0,0,0,2.54-5.773,8.205,8.205,0,0,0-2.049-5.746q-2.049-2.247-6.146-2.248H16.9q-4.942,0-7.579-2.818A10.075,10.075,0,0,1,6.68,15.989,9.217,9.217,0,0,1,9.81,8.8Q12.939,6,18.862,6a26.361,26.361,0,0,1,7.493,1.028A16.531,16.531,0,0,1,32.138,9.91L33.71,8.66A18.124,18.124,0,0,0,27.24,5.218,27.827,27.827,0,0,0,18.862,4Q12.125,4,8.392,7.4m65.4-.582a21.021,21.021,0,0,0-7.732,7.646,20.337,20.337,0,0,0-2.849,10.521A20.328,20.328,0,0,0,66.058,35.5a21.333,21.333,0,0,0,35.885,1.333l-1.628-1.193a19.176,19.176,0,0,1-6.82,6.079,18.842,18.842,0,0,1-9.066,2.249,18.969,18.969,0,0,1-17.684-11.6,18.745,18.745,0,0,1,0-14.768,18.974,18.974,0,0,1,4.085-6.066A19.588,19.588,0,0,1,84.429,6a19.271,19.271,0,0,1,15.886,8.3L102,13.213a21.15,21.15,0,0,0-7.55-6.732,21.475,21.475,0,0,0-20.658.334m137.84,9.426v.371h1.74v-.371c0-6.893,4.379-11.346,11.156-11.346,6.619,0,10.9,4.418,10.9,11.256,0,6.8-5.423,14.338-16.118,22.129h2.6c10.128-7.656,15.262-15.193,15.262-22.129,0-7.854-4.961-12.93-12.636-12.93-7.834,0-12.9,5.111-12.9,13.02M250.7,32.367V17.607c0-7.724,4.931-12.712,12.564-12.712s12.564,4.988,12.564,12.712V32.367c0,7.723-4.931,12.712-12.564,12.712S250.7,40.09,250.7,32.367m-1.743-14.761V32.393c.012,8.722,5.628,14.36,14.307,14.36s14.295-5.638,14.306-14.36V17.607c0-8.605-5.75-14.386-14.306-14.386S248.957,9,248.957,17.607m39.926-1.366v.371h1.74v-.371C290.622,9.348,295,4.9,301.778,4.9c6.619,0,10.9,4.418,10.9,11.256,0,6.8-5.422,14.338-16.118,22.129h2.6c10.128-7.656,15.262-15.193,15.262-22.129,0-7.854-4.961-12.93-12.635-12.93-7.835,0-12.9,5.111-12.9,13.02m38.033-1.39v.372h1.741v-.372c0-5.784,4.436-9.983,10.551-9.983,6.064,0,10.3,4.19,10.3,10.19a8.566,8.566,0,0,1-2.5,6.376c-2.279,2.272-5.919,3.471-10.526,3.471H336.1v1.578h.376c9.11,0,14.769-4.378,14.769-11.427,0-6.984-4.951-11.862-12.038-11.862-7.006,0-12.291,5.013-12.291,11.657M40.727,47.966h2.021V2H40.727Zm4.042,0H46.79V2H44.768Zm4.042,0h2.021V2H48.81Zm4.042,0h2.021V2H52.852Zm56.332,0h2.021V2h-2.021Zm4.042,0h2.02V2h-2.02Zm4.041,0h2.021V2h-2.021ZM121.31,2V47.966h23.521v-2h-21.5v-2h21.5v-2h-21.5v-2h21.5v-2h-21.5V29.979h11.031v-2H123.331v-2h11.031v-2H123.331v-2h11.031v-2H123.331V11.992h21.5v-2h-21.5v-2h21.5V6h-21.5V4h21.5V2ZM149.8,2V47.966h2.02V5.8L167.9,35.975h2.274L152.072,2Zm4.575,0L172.45,35.975h2.3L156.676,2Zm31.577,0-11.676,21.79,1.179,2.109L188.252,2Zm4.6,0L176.632,28.175l1.151,2.082L192.827,2ZM195.1,2,178.176,33.865,161.223,2H158.95L177,35.975h2.3L195.382,5.8V47.966h2.02V2Zm13.162,14.242v.371H210v-.371c0-8.834,5.7-14.54,14.522-14.54,8.666,0,14.265,5.671,14.265,14.45,0,9.258-8.1,17.2-14.946,22.129l2.666,0c9.16-6.9,14-14.63,14-22.128,0-9.8-6.272-16.124-15.981-16.124-9.88,0-16.263,6.365-16.263,16.217m39.068,16.127V17.607c0-9.663,6.254-15.905,15.933-15.905S279.2,7.944,279.2,17.607V32.367c0,9.663-6.254,15.905-15.933,15.905s-15.933-6.243-15.933-15.905m-1.743-14.761V32.388c.012,10.665,6.95,17.556,17.676,17.556s17.664-6.891,17.674-17.556V17.6C280.938,6.924,274,.024,263.264.024s-17.676,6.9-17.676,17.583m39.926-1.366v.371h1.741v-.371c0-8.834,5.7-14.54,14.523-14.54,8.666,0,14.264,5.671,14.264,14.45,0,9.258-8.1,17.2-14.946,22.129l2.665,0c9.16-6.9,14-14.63,14-22.128,0-9.8-6.272-16.124-15.981-16.124-9.881,0-16.264,6.365-16.264,16.217M18.862,0a24.038,24.038,0,0,0-6.415.819A17.186,17.186,0,0,0,7.34,3.095,15.659,15.659,0,0,0,3.663,6.551a14.264,14.264,0,0,0-2.287,4.386,16.583,16.583,0,0,0-.758,5.052,17.776,17.776,0,0,0,1.067,6.218,15.274,15.274,0,0,0,3.073,5.08,13.707,13.707,0,0,0,5.136,3.441,18.741,18.741,0,0,0,7,1.25h3.031a2.162,2.162,0,0,1,1.7.541,2.166,2.166,0,0,1,.463,1.457,1.656,1.656,0,0,1-.828,1.472,6.717,6.717,0,0,1-3.241.527q-4.969,0-6.933-.888L9.459,36.308q2.863,1.665,8.561,1.666,6.034,0,6.034-4a4.279,4.279,0,0,0-.954-2.887,3.91,3.91,0,0,0-3.115-1.11H16.9a15.25,15.25,0,0,1-7.775-1.9,12.137,12.137,0,0,1-4.883-5.038,15.286,15.286,0,0,1-1.6-7.05,13.684,13.684,0,0,1,1.08-5.441A13.342,13.342,0,0,1,6.806,6.106a14.076,14.076,0,0,1,5.109-3.011A20.736,20.736,0,0,1,18.862,2a29.518,29.518,0,0,1,9.206,1.4,19.827,19.827,0,0,1,7.157,3.956l1.628-1.194a21.836,21.836,0,0,0-7.859-4.538A30.9,30.9,0,0,0,18.862,0ZM84.429,0a24.853,24.853,0,0,0-9.811,1.985,25.485,25.485,0,0,0-8.055,5.33,25.141,25.141,0,0,0-5.388,7.966,24.45,24.45,0,0,0,0,19.4,25.132,25.132,0,0,0,5.388,7.966,25.459,25.459,0,0,0,8.055,5.33A25.4,25.4,0,0,0,96.3,47.036a25.2,25.2,0,0,0,8.981-7.925l-1.628-1.221a23.21,23.21,0,0,1-8.279,7.356,23.352,23.352,0,0,1-19.97.9,23.306,23.306,0,0,1-7.424-4.9,23.024,23.024,0,0,1-4.955-7.342,22.58,22.58,0,0,1,0-17.848,23.024,23.024,0,0,1,4.955-7.342,23.317,23.317,0,0,1,7.424-4.9,23.323,23.323,0,0,1,28.221,8.2l1.684-1.083A25.135,25.135,0,0,0,96.33,2.942,24.852,24.852,0,0,0,84.429,0ZM339.207,0c-8.928,0-15.66,6.384-15.66,14.851v.363l1.742.041v-.38c0-7.513,5.983-13.178,13.918-13.178,8.046,0,13.665,5.5,13.665,13.382,0,7.822-6.283,12.683-16.4,12.683H336.1V29.34h.607c3.4,0,7.446.871,7.446,5.024,0,2.6-2.136,4.411-5.2,4.411-3.141,0-5.335-2.354-5.335-5.728v-.372H331.88v.372c0,4.288,2.977,7.4,7.078,7.4,4.02,0,6.937-2.559,6.937-6.085a5.741,5.741,0,0,0-3.675-5.579c.642-.132,1.265-.288,1.862-.467a6.642,6.642,0,0,1,3.44,6.045c0,4.452-3.521,7.561-8.564,7.561-5.125,0-8.7-3.651-8.7-8.878v-.372h-1.74v.372A10.155,10.155,0,0,0,338.958,43.6c6.068,0,10.3-3.8,10.3-9.235A8.089,8.089,0,0,0,346,27.639c.48-.2.943-.419,1.389-.65a8.67,8.67,0,0,1,3.5,7.375c0,6.307-4.908,10.712-11.933,10.712-7.107,0-12.071-4.945-12.071-12.029v-.372h-1.742v.372c0,7.94,5.81,13.7,13.813,13.7,8.051,0,13.672-5.095,13.672-12.385a10.379,10.379,0,0,0-3.709-8.3q.569-.388,1.083-.815a11.136,11.136,0,0,1,4.253,9.111c0,8.188-6.29,13.906-15.3,13.906-9.091,0-15.44-6.26-15.44-15.223v-.372h-1.742v.372c0,9.947,7.065,16.9,17.182,16.9,10.033,0,17.042-6.416,17.042-15.6a12.6,12.6,0,0,0-4.785-10.255,12.948,12.948,0,0,0,3.4-9.029C354.614,6.192,348.279,0,339.207,0Z" transform="translate(40 54.035)" fill="url(#linear-gradient)"/>
      <text id="The_11th_Seoul_International_Congress_of_Endocrinology_and_Metabolism_in_conjunction_with_the_42nd_Annual_Scientific_Meeting_of_Korean_Endocrine_Society" data-name="The 11th Seoul International Congress of Endocrinology and Metabolismin conjunction with the 42nd Annual Scientific Meeting of Korean Endocrine Society" transform="translate(416 78)" fill="#414042" font-size="18" font-family="RobotoCondensed-Regular, Roboto Condensed" letter-spacing="-0.01em"><tspan x="0" y="0">The 11</tspan><tspan y="0" font-size="10.499" baseline-shift="5.9994001388549805">th</tspan><tspan y="0"> </tspan><tspan y="0" font-family="RobotoCondensed-Bold, Roboto Condensed" font-weight="700">S</tspan><tspan y="0">eoul </tspan><tspan y="0" font-family="RobotoCondensed-Bold, Roboto Condensed" font-weight="700">I</tspan><tspan y="0">nternational </tspan><tspan y="0" font-family="RobotoCondensed-Bold, Roboto Condensed" font-weight="700">C</tspan><tspan y="0">ongress of </tspan><tspan y="0" font-family="RobotoCondensed-Bold, Roboto Condensed" font-weight="700">E</tspan><tspan y="0">ndocrinology and </tspan><tspan y="0" font-family="RobotoCondensed-Bold, Roboto Condensed" font-weight="700">M</tspan><tspan y="0">etabolism</tspan><tspan x="0" y="22">in conjunction with the 42</tspan><tspan y="22" font-size="10.499" baseline-shift="5.9994001388549805">nd</tspan><tspan y="22" xml:space="preserve"> Annual Scientific Meeting of Korean Endocrine Society</tspan></text>
    </g>
  </g>
</svg>
