<svg xmlns="http://www.w3.org/2000/svg" width="64.192" height="52.521" viewBox="0 0 64.192 52.521">
  <path id="패스_30" data-name="패스 30" d="M57.148,26.26,35.868,47.539a2.918,2.918,0,1,0,4.127,4.127L63.337,28.323a2.916,2.916,0,0,0,0-4.126L39.995.854a2.918,2.918,0,1,0-4.127,4.127Zm-35.014,0L.855,47.539a2.918,2.918,0,0,0,4.127,4.127L28.324,28.323a2.918,2.918,0,0,0,0-4.126L4.982.854A2.918,2.918,0,0,0,.855,4.981Z" transform="translate(64.192 52.52) rotate(180)" fill="#fff" fill-rule="evenodd"/>
</svg>
