<svg xmlns="http://www.w3.org/2000/svg" width="80" height="80" viewBox="0 0 80 80">
  <g id="ICON_search" transform="translate(-10)">
    <rect id="사각형_12" data-name="사각형 12" width="80" height="80" transform="translate(10)" fill="none"/>
    <path id="패스_33" data-name="패스 33" d="M22.5,45A22.5,22.5,0,1,1,45,22.5,22.524,22.524,0,0,1,22.5,45m0-39.765A17.266,17.266,0,1,0,39.763,22.5,17.282,17.282,0,0,0,22.5,5.234" transform="translate(23.6 13.622)" fill="#0086fe"/>
    <path id="패스_34" data-name="패스 34" d="M47.869,49.692a2.607,2.607,0,0,1-1.85-.767L33.279,36.183a2.617,2.617,0,0,1,3.7-3.7l12.74,12.743a2.617,2.617,0,0,1-1.85,4.467" transform="translate(25.438 15.416)" fill="#0086fe"/>
  </g>
</svg>
